<?xml version="1.0" standalone="no"?>
<!DOCTYPE svg PUBLIC "-//W3C//DTD SVG 20010904//EN"
 "http://www.w3.org/TR/2001/REC-SVG-20010904/DTD/svg10.dtd">
<svg version="1.0" xmlns="http://www.w3.org/2000/svg"
 width="121.000000pt" height="126.000000pt" viewBox="0 0 121.000000 126.000000"
 preserveAspectRatio="xMidYMid meet">

<g transform="translate(0.000000,126.000000) scale(0.100000,-0.100000)"
fill="#000000" stroke="none">
<path d="M517 1094 c-53 -16 -133 -62 -87 -48 14 4 30 9 36 11 7 2 15 0 19 -6
3 -6 -1 -11 -10 -11 -9 0 -25 -5 -36 -10 -18 -10 -18 -12 -3 -35 13 -20 20
-23 34 -15 11 6 21 6 24 1 3 -5 -4 -11 -15 -14 -17 -5 -19 -9 -10 -26 17 -30
47 -44 70 -31 11 5 28 10 38 10 10 0 -5 -11 -32 -24 -70 -32 -141 -113 -161
-183 -43 -149 41 -296 196 -344 l25 -7 -26 -1 c-39 -1 -125 47 -159 89 -36 45
-60 99 -60 135 0 30 -3 32 -99 39 l-74 6 6 -61 c8 -89 60 -190 136 -262 273
-261 708 -108 775 272 6 31 4 33 -19 29 -29 -6 -32 0 -9 16 13 10 14 16 3 39
-7 15 -15 27 -19 27 -9 0 -28 -39 -32 -65 -3 -16 -12 -21 -49 -23 -46 -3 -47
-4 -53 -41 -14 -87 -115 -186 -202 -197 -38 -4 -38 -4 11 13 70 24 145 101
168 172 33 103 14 189 -60 271 -55 61 -109 91 -183 100 -53 7 -53 7 -12 9 35
1 42 4 42 21 0 26 14 25 33 -2 14 -21 16 -22 32 -7 20 20 12 64 -11 55 -21 -8
-36 28 -24 58 6 18 17 26 33 26 25 0 67 -25 67 -41 0 -18 -28 -9 -33 12 -4 13
-12 20 -24 17 -31 -6 -27 -38 8 -68 31 -25 32 -30 21 -54 -8 -19 -19 -26 -39
-26 -28 -1 -28 -1 6 -16 28 -12 36 -12 43 -2 69 113 71 119 49 125 -11 3 -18
10 -15 15 3 5 13 7 21 4 35 -14 -2 15 -45 35 -63 29 -225 36 -295 13z m88 -56
c31 -67 32 -94 3 -102 -42 -11 -48 -6 -78 60 -34 76 -34 74 -19 74 5 0 24 -30
40 -66 24 -53 33 -64 44 -54 12 10 11 17 -1 53 -8 22 -21 48 -29 57 -15 16
-11 30 7 30 5 0 20 -24 33 -52z m-66 -119 c-22 -14 -33 -10 -19 6 7 8 17 12
22 9 6 -4 5 -10 -3 -15z m256 -109 c4 -6 -5 -10 -20 -10 -15 0 -24 4 -20 10 3
6 12 10 20 10 8 0 17 -4 20 -10z m-100 -50 c4 -6 -37 -10 -114 -10 -74 0 -121
4 -121 10 0 6 45 10 114 10 66 0 117 -4 121 -10z m90 0 c-3 -5 -19 -10 -36
-10 -16 0 -29 5 -29 10 0 6 16 10 36 10 21 0 33 -4 29 -10z m5 -50 c10 -6 -46
-10 -167 -10 -116 0 -183 4 -183 10 0 13 330 13 350 0z m-15 -50 c-4 -6 -68
-10 -160 -10 -92 0 -156 4 -160 10 -4 7 52 10 160 10 108 0 164 -3 160 -10z
m-34 -54 c-9 -10 -38 -14 -109 -15 -102 0 -132 4 -132 20 0 5 55 9 126 9 108
0 125 -2 115 -14z m-433 -113 c51 -12 72 -34 88 -92 16 -57 47 -101 70 -101
23 0 26 21 7 42 -18 21 -18 21 5 9 13 -7 28 -23 34 -37 6 -13 19 -24 29 -24
10 0 27 -12 38 -26 30 -39 26 -51 -5 -15 -23 28 -31 31 -83 31 -68 0 -95 21
-110 85 -5 22 -9 34 -10 28 -2 -22 -69 -16 -81 6 -9 19 -9 19 16 6 29 -15 54
-10 54 11 0 22 -49 64 -75 64 -18 0 -26 7 -31 24 -9 37 7 57 19 23 5 -17 18
-29 35 -34z m728 13 c-5 -19 -13 -26 -31 -26 -24 0 -75 -45 -75 -66 0 -19 37
-23 59 -7 23 15 29 5 9 -15 -16 -16 -75 -15 -82 1 -4 8 -5 7 -5 -3 3 -36 -2
-50 -27 -79 -23 -28 -31 -31 -84 -31 -53 0 -61 -3 -84 -31 -14 -17 -26 -26
-26 -21 0 16 41 62 55 62 7 0 25 16 39 35 31 40 55 48 30 10 -15 -23 -15 -25
1 -32 26 -9 70 44 78 94 8 47 45 88 87 96 21 5 31 14 36 32 4 18 10 23 17 16
5 -5 7 -21 3 -35z m-568 26 c17 -11 6 -37 -17 -39 -13 -1 -18 5 -16 20 3 31 8
34 33 19z m390 -20 c3 -16 -2 -22 -16 -22 -24 0 -38 30 -20 42 19 12 33 4 36
-20z m-295 -53 c-7 -24 -45 -21 -56 5 -5 13 -2 23 9 31 22 16 54 -9 47 -36z
m212 37 c20 -19 8 -53 -19 -53 -24 0 -31 32 -11 54 13 16 14 16 30 -1z m-104
-25 c14 -13 17 -21 9 -26 -6 -4 -9 -13 -6 -20 9 -25 -49 -15 -61 11 -9 19 -7
25 11 38 27 19 23 19 47 -3z m-3 -118 c-10 -2 -28 -2 -40 0 -13 2 -5 4 17 4
22 1 32 -1 23 -4z"/>
<path d="M384 1016 c4 -11 2 -23 -5 -27 -14 -8 -6 -24 44 -79 55 -60 76 -47
34 21 -40 64 -82 113 -73 85z"/>
<path d="M856 949 c-20 -34 -35 -63 -34 -65 5 -4 123 86 126 96 2 6 -5 10 -15
10 -11 0 -24 5 -30 11 -7 7 -21 -9 -47 -52z"/>
<path d="M330 944 c0 -13 -3 -14 -13 -5 -8 6 -17 8 -20 5 -12 -12 12 -41 61
-76 38 -28 53 -33 71 -27 22 9 21 10 -21 55 -24 25 -44 50 -46 55 -6 16 -32
10 -32 -7z"/>
<path d="M932 888 c-23 -40 -39 -74 -37 -77 7 -6 115 68 115 79 0 6 -7 10 -15
10 -18 0 -20 16 -2 23 9 3 8 9 -4 21 -14 15 -19 10 -57 -56z"/>
<path d="M917 928 c-10 -11 -16 -22 -13 -26 6 -6 35 27 36 41 0 10 -2 8 -23
-15z"/>
<path d="M700 930 c0 -6 7 -10 15 -10 8 0 15 2 15 4 0 2 -7 6 -15 10 -8 3 -15
1 -15 -4z"/>
<path d="M280 890 c0 -5 -5 -9 -12 -7 -6 1 -13 -5 -15 -13 -3 -13 41 -37 120
-66 34 -12 16 14 -38 55 -30 23 -55 37 -55 31z"/>
<path d="M855 880 c-15 -16 -15 -22 -5 -35 17 -21 25 -19 38 9 16 35 -8 54
-33 26z"/>
<path d="M965 826 c-32 -22 -57 -45 -55 -51 6 -12 4 -12 93 21 37 14 65 30 61
35 -3 5 -10 7 -15 4 -5 -4 -9 1 -9 9 0 27 -14 24 -75 -18z"/>
<path d="M222 815 c-7 -14 -12 -28 -12 -30 0 -3 29 -5 65 -5 36 0 65 4 65 10
0 9 -80 50 -98 50 -5 0 -14 -11 -20 -25z"/>
<path d="M1021 791 c-8 -5 -12 -18 -8 -30 3 -12 1 -21 -5 -21 -5 0 -12 9 -15
20 -6 24 -12 25 -40 5 -22 -15 -22 -55 0 -55 6 0 2 -7 -9 -15 -19 -14 -18 -14
4 -15 12 0 22 -4 22 -10 0 -5 -4 -10 -10 -10 -15 0 -12 -26 5 -40 20 -17 45 3
45 36 0 32 43 53 71 36 17 -11 19 -9 19 17 0 25 -4 29 -20 26 -12 -2 -18 0
-14 6 9 15 -5 59 -19 59 -6 0 -18 -4 -26 -9z"/>
<path d="M305 771 l-40 -6 49 -18 c51 -17 65 -13 66 21 0 13 -10 13 -75 3z"/>
<path d="M198 743 c-3 -15 10 -21 67 -35 83 -20 95 -21 95 -7 0 5 -17 17 -37
25 -21 8 -46 19 -55 24 -29 16 -66 12 -70 -7z"/>
<path d="M203 701 c-17 -11 -22 -39 -10 -49 16 -12 102 -23 122 -16 30 12 17
43 -22 53 -71 17 -81 19 -90 12z"/>
<path d="M445 184 c93 -54 273 -57 393 -7 55 23 31 25 -53 3 -93 -24 -178 -25
-260 -4 -33 8 -71 17 -85 20 -23 5 -23 4 5 -12z"/>
</g>
</svg>
