<svg width="32" height="32" viewBox="0 0 32 32" fill="none" xmlns="http://www.w3.org/2000/svg">
<g clip-path="url(#clip0_2291_181)">
<path d="M4.33904 31.6516H7.29142C8.52951 31.6516 9.53142 30.7165 9.53142 29.5609V20.48C9.53142 19.3245 8.52951 18.3894 7.29142 18.3894H3.0819V14.9476C3.0819 8.29869 8.87618 2.89425 15.9962 2.89425C23.1162 2.89425 28.9105 8.30225 28.9105 14.9476V18.4676H24.7086C23.4705 18.4676 22.4686 19.4027 22.4686 20.5582V29.6391C22.4686 30.7947 23.4705 31.7298 24.7086 31.7298H27.6609C30.0343 31.7298 31.9581 29.9342 31.9581 27.7191V26.7591V14.9476C31.9581 6.73069 24.7962 0.0498047 15.9962 0.0498047C7.19618 0.0498047 0.0380859 6.73069 0.0380859 14.9476V26.7556H0.0457048V27.6374C0.0457048 29.8525 1.96951 31.648 4.34285 31.648L4.33904 31.6516Z" fill="white"/>
</g>
<defs>
<clipPath id="clip0_2291_181">
<rect width="32" height="32" fill="white"/>
</clipPath>
</defs>
</svg>
