<svg width="47" height="48" viewBox="0 0 47 48" fill="none" xmlns="http://www.w3.org/2000/svg">
<g clip-path="url(#clip0_313_174)">
<path d="M29.2765 39.0534C30.1718 39.9577 31.3032 40.5923 32.5416 40.8848C33.7801 41.1773 35.0759 41.116 36.2812 40.7077C37.4865 40.2995 38.5528 39.5609 39.3587 38.576C40.1645 37.5911 40.6774 36.3995 40.8389 35.1373C41.0004 33.875 40.804 32.5928 40.272 31.4367C39.7401 30.2807 38.894 29.2973 37.8303 28.5988C36.7666 27.9003 35.528 27.5147 34.2558 27.486C32.9835 27.4573 31.7288 27.7867 30.6347 28.4365L19.1746 16.9764C20.0133 15.5524 20.304 13.8714 19.9921 12.2484C19.6802 10.6254 18.7872 9.17188 17.4805 8.16013C16.1737 7.14837 14.5428 6.64786 12.8935 6.75237C11.2441 6.85689 9.68945 7.55926 8.52084 8.72787C7.35223 9.89648 6.64985 11.4511 6.54534 13.1005C6.44083 14.7498 6.94134 16.3807 7.9531 17.6875C8.96485 18.9943 10.4184 19.8872 12.0414 20.1991C13.6643 20.511 15.3454 20.2203 16.7694 19.3816L28.2295 30.8417C27.4745 32.1345 27.1678 33.6405 27.3572 35.1255C27.5465 36.6106 28.2213 37.9914 29.2765 39.0534ZM36.4468 31.883C37.0053 32.4369 37.3541 33.1675 37.4338 33.95C37.5134 34.7325 37.3189 35.5184 36.8835 36.1735C36.4482 36.8286 35.7989 37.3121 35.0465 37.5417C34.2942 37.7712 33.4855 37.7325 32.7586 37.432C32.0317 37.1316 31.4316 36.5881 31.0609 35.8944C30.6902 35.2007 30.5717 34.3998 30.7259 33.6285C30.88 32.8572 31.2971 32.1633 31.906 31.6654C32.5148 31.1674 33.2777 30.8963 34.0642 30.8983C34.957 30.9006 35.813 31.2544 36.4468 31.883ZM10.9799 15.9294C10.5006 15.4563 10.1728 14.8514 10.0382 14.1915C9.90363 13.5316 9.96829 12.8466 10.224 12.2236C10.4797 11.6006 10.9149 11.0677 11.4742 10.6926C12.0336 10.3175 12.6918 10.1173 13.3653 10.1173C14.0388 10.1173 14.697 10.3175 15.2564 10.6926C15.8157 11.0677 16.2509 11.6006 16.5066 12.2236C16.7623 12.8466 16.827 13.5316 16.6924 14.1915C16.5578 14.8514 16.23 15.4563 15.7507 15.9294C15.115 16.5643 14.2536 16.9214 13.3552 16.9225C12.4567 16.9236 11.5945 16.5685 10.9573 15.9351L10.9799 15.9294Z" fill="#FFF"/>
<path d="M37.5786 7.6327C36.1548 6.79294 34.4735 6.50132 32.8501 6.81252C31.2266 7.12372 29.7724 8.01636 28.76 9.3231C27.7477 10.6299 27.2467 12.261 27.3509 13.9107C27.4552 15.5604 28.1576 17.1155 29.3265 18.2844C30.4954 19.4532 32.0504 20.1556 33.7001 20.2599C35.3499 20.3642 36.981 19.8632 38.2877 18.8508C39.5945 17.8385 40.4871 16.3842 40.7983 14.7608C41.1095 13.1373 40.8179 11.4561 39.9782 10.0322L46.5147 3.5014L44.1094 1.09619L37.5786 7.6327ZM36.5373 15.8444C36.0642 16.3237 35.4592 16.6514 34.7994 16.786C34.1395 16.9206 33.4545 16.856 32.8315 16.6003C32.2084 16.3446 31.6755 15.9094 31.3004 15.35C30.9254 14.7907 30.7251 14.1324 30.7251 13.459C30.7251 12.7855 30.9254 12.1272 31.3004 11.5679C31.6755 11.0085 32.2084 10.5733 32.8315 10.3176C33.4545 10.0619 34.1395 9.99728 34.7994 10.1319C35.4592 10.2665 36.0642 10.5943 36.5373 11.0736C37.1646 11.709 37.5163 12.566 37.5163 13.459C37.5163 14.3519 37.1646 15.2089 36.5373 15.8444Z" fill="#FFF"/>
<path d="M9.82546 40.1852C11.2493 41.0249 12.9305 41.3166 14.554 41.0054C16.1774 40.6942 17.6317 39.8015 18.644 38.4948C19.6564 37.188 20.1574 35.5569 20.0531 33.9072C19.9488 32.2574 19.2464 30.7024 18.0776 29.5335C16.9087 28.3647 15.3536 27.6623 13.7039 27.558C12.0542 27.4537 10.4231 27.9547 9.11632 28.9671C7.80957 29.9794 6.91693 31.4336 6.60573 33.0571C6.29454 34.6806 6.58615 36.3618 7.42591 37.7856L0.889404 44.3165L3.28895 46.716L9.82546 40.1852ZM10.8668 31.9735C11.3399 31.4942 11.9448 31.1664 12.6047 31.0318C13.2646 30.8972 13.9496 30.9619 14.5726 31.2176C15.1956 31.4733 15.7286 31.9085 16.1036 32.4679C16.4787 33.0272 16.6789 33.6855 16.6789 34.3589C16.6789 35.0324 16.4787 35.6906 16.1036 36.25C15.7286 36.8093 15.1956 37.2445 14.5726 37.5002C13.9496 37.7559 13.2646 37.8206 12.6047 37.686C11.9448 37.5514 11.3399 37.2236 10.8668 36.7443C10.5521 36.4319 10.3024 36.0602 10.1319 35.6508C9.96152 35.2414 9.87378 34.8024 9.87378 34.3589C9.87378 33.9155 9.96152 33.4764 10.1319 33.067C10.3024 32.6576 10.5521 32.286 10.8668 31.9735Z" fill="#FFF"/>
</g>
<defs>
<clipPath id="clip0_313_174">
<rect width="46.4064" height="46.4064" fill="currentColor" transform="translate(0.499023 0.705566)"/>
</clipPath>
</defs>
</svg>
