<svg width="87" height="95" viewBox="0 0 87 95" fill="none" xmlns="http://www.w3.org/2000/svg">
<g clip-path="url(#clip0_91_147)">
<path d="M48.1737 73.625C47.5373 73.625 46.927 73.8753 46.477 74.3207C46.027 74.7661 45.7742 75.3701 45.7742 76C45.7742 76.6299 46.027 77.2339 46.477 77.6793C46.927 78.1247 47.5373 78.375 48.1737 78.375C48.8101 78.375 49.4205 78.1247 49.8705 77.6793C50.3205 77.2339 50.5732 76.6299 50.5732 76C50.5732 75.3701 50.3205 74.7661 49.8705 74.3207C49.4205 73.8753 48.8101 73.625 48.1737 73.625Z" fill="#21262D"/>
<path d="M48.1737 57C47.5373 57 46.927 57.2503 46.477 57.6957C46.027 58.1411 45.7742 58.7451 45.7742 59.375V68.875C45.7742 69.5049 46.027 70.1089 46.477 70.5543C46.927 70.9997 47.5373 71.25 48.1737 71.25C48.8101 71.25 49.4205 70.9997 49.8705 70.5543C50.3205 70.1089 50.5732 69.5049 50.5732 68.875V59.375C50.5732 58.7451 50.3205 58.1411 49.8705 57.6957C49.4205 57.2503 48.8101 57 48.1737 57Z" fill="#21262D"/>
<path d="M48.1737 40.375C47.7562 40.3751 47.346 40.483 46.9836 40.688C46.6211 40.893 46.3189 41.188 46.1069 41.5439L22.1115 81.9189C21.8968 82.2797 21.7822 82.6901 21.7794 83.1088C21.7765 83.5274 21.8855 83.9394 22.0953 84.3029C22.3051 84.6665 22.6083 84.9687 22.9741 85.1789C23.3399 85.3891 23.7553 85.4999 24.1783 85.5H72.1691C72.5924 85.5007 73.0085 85.3905 73.375 85.1807C73.7414 84.9708 74.0453 84.6686 74.2556 84.305C74.466 83.9413 74.5754 83.529 74.5728 83.1099C74.5701 82.6909 74.4555 82.28 74.2405 81.9189L50.2452 41.5439C50.0327 41.1873 49.7298 40.8919 49.3665 40.6868C49.0031 40.4818 48.5919 40.3743 48.1737 40.375ZM48.1785 47.4397L67.9747 80.75H28.3776L48.1785 47.4397Z" fill="#21262D"/>
<path d="M12.1759 0C11.5395 6.29775e-05 10.9292 0.250271 10.4792 0.695656C10.0293 1.14104 9.77639 1.74513 9.77633 2.375V14.25H2.5824C1.94602 14.2501 1.33576 14.5003 0.885778 14.9457C0.435791 15.391 0.182925 15.9951 0.182861 16.625V33.25C0.182925 33.8799 0.435791 34.484 0.885778 34.9293C1.33576 35.3747 1.94602 35.6249 2.5824 35.625H9.77633V92.625C9.77639 93.2549 10.0293 93.859 10.4792 94.3043C10.9292 94.7497 11.5395 94.9999 12.1759 95H84.162C84.7984 94.9999 85.4087 94.7497 85.8587 94.3043C86.3087 93.859 86.5615 93.2549 86.5615 92.625V23.75C86.5614 23.1202 86.3085 22.5161 85.8585 22.0708L64.2627 0.695801C63.8128 0.250402 63.2025 0.000122808 62.5662 0H12.1759ZM14.5754 4.75H60.1666V23.75C60.1667 24.3799 60.4195 24.984 60.8695 25.4293C61.3195 25.8747 61.9298 26.1249 62.5662 26.125H81.7625V90.25H14.5754V35.625H48.1736C48.81 35.6249 49.4203 35.3747 49.8703 34.9293C50.3203 34.484 50.5731 33.8799 50.5732 33.25V16.625C50.5731 15.9951 50.3203 15.391 49.8703 14.9457C49.4203 14.5003 48.81 14.2501 48.1736 14.25H14.5754V4.75ZM64.9657 8.1084L78.3694 21.375H64.9657V8.1084ZM4.98194 19H45.7741V30.875H4.98194V19Z" fill="#21262D"/>
</g>
<defs>
<clipPath id="clip0_91_147">
<rect width="86.6408" height="95" fill="white" transform="translate(0.305664)"/>
</clipPath>
</defs>
</svg>
