<svg width="61" height="48" viewBox="0 0 61 48" fill="none" xmlns="http://www.w3.org/2000/svg">
<g clip-path="url(#clip0_313_163)">
<path d="M56.2577 0.705566H48.2439C47.9997 0.705638 47.7642 0.796032 47.5828 0.95932L43.4722 4.65504H14.1768L10.5138 0.994866C10.3285 0.809685 10.0772 0.705622 9.81514 0.705566H3.88629C3.10008 0.705566 2.34607 1.01764 1.79013 1.57315C1.2342 2.12865 0.921875 2.88207 0.921875 3.66767V43.1625C0.921875 44.2099 1.3383 45.2145 2.07955 45.9552C2.8208 46.6958 3.82615 47.1119 4.87443 47.1119H56.2577C57.306 47.1119 58.3113 46.6958 59.0526 45.9552C59.7938 45.2145 60.2103 44.2099 60.2103 43.1625V4.65504C60.2103 3.60758 59.7938 2.60301 59.0526 1.86234C58.3113 1.12167 57.306 0.705566 56.2577 0.705566ZM39.0799 8.60452H9.81514V6.62978H41.2765L39.0799 8.60452ZM2.89815 3.66767C2.89815 3.40581 3.00226 3.15467 3.18757 2.9695C3.37289 2.78433 3.62422 2.68031 3.88629 2.68031H9.40604L11.3823 4.65504H8.82699C8.56492 4.65504 8.31359 4.75907 8.12827 4.94424C7.94296 5.12941 7.83885 5.38055 7.83885 5.64241V8.60452H2.89815V3.66767ZM58.234 43.1625C58.234 43.6862 58.0258 44.1885 57.6552 44.5588C57.2845 44.9291 56.7819 45.1372 56.2577 45.1372H4.87443C4.35029 45.1372 3.84762 44.9291 3.47699 44.5588C3.10637 44.1885 2.89815 43.6862 2.89815 43.1625V10.5793H39.4593C39.7034 10.5795 39.9388 10.4894 40.1204 10.3265L44.5176 6.37702C44.5236 6.37109 44.5275 6.36319 44.5334 6.35826L48.6224 2.68031H56.2577C56.7819 2.68031 57.2845 2.88836 57.6552 3.25869C58.0258 3.62903 58.234 4.13131 58.234 4.65504V43.1625Z" fill="#FFF"/>
<path d="M7.83873 16.5035H13.7676C14.0296 16.5035 14.281 16.3995 14.4663 16.2144C14.6516 16.0292 14.7557 15.778 14.7557 15.5162C14.7557 15.2543 14.6516 15.0032 14.4663 14.818C14.281 14.6328 14.0296 14.5288 13.7676 14.5288H7.83873C7.57665 14.5288 7.32532 14.6328 7.14001 14.818C6.95469 15.0032 6.85059 15.2543 6.85059 15.5162C6.85059 15.778 6.95469 16.0292 7.14001 16.2144C7.32532 16.3995 7.57665 16.5035 7.83873 16.5035Z" fill="#FFF"/>
<path d="M22.6609 14.5288H21.6727C21.4106 14.5288 21.1593 14.6328 20.974 14.818C20.7887 15.0032 20.6846 15.2543 20.6846 15.5162C20.6846 15.778 20.7887 16.0292 20.974 16.2144C21.1593 16.3995 21.4106 16.5035 21.6727 16.5035H22.6609C22.9229 16.5035 23.1743 16.3995 23.3596 16.2144C23.5449 16.0292 23.649 15.778 23.649 15.5162C23.649 15.2543 23.5449 15.0032 23.3596 14.818C23.1743 14.6328 22.9229 14.5288 22.6609 14.5288Z" fill="#FFF"/>
<path d="M22.6608 18.4785H7.83873C7.57665 18.4785 7.32532 18.5825 7.14001 18.7677C6.95469 18.9529 6.85059 19.204 6.85059 19.4659C6.85059 19.7278 6.95469 19.9789 7.14001 20.1641C7.32532 20.3492 7.57665 20.4533 7.83873 20.4533H22.6608C22.9229 20.4533 23.1742 20.3492 23.3595 20.1641C23.5449 19.9789 23.649 19.7278 23.649 19.4659C23.649 19.204 23.5449 18.9529 23.3595 18.7677C23.1742 18.5825 22.9229 18.4785 22.6608 18.4785Z" fill="#FFF"/>
<path d="M54.2814 34.2764H35.5067C35.2446 34.2764 34.9933 34.3804 34.808 34.5656C34.6227 34.7507 34.5186 35.0019 34.5186 35.2637V41.188C34.5186 41.4498 34.6227 41.701 34.808 41.8861C34.9933 42.0713 35.2446 42.1753 35.5067 42.1753H54.2814C54.5434 42.1753 54.7948 42.0713 54.9801 41.8861C55.1654 41.701 55.2695 41.4498 55.2695 41.188V35.2637C55.2695 35.0019 55.1654 34.7507 54.9801 34.5656C54.7948 34.3804 54.5434 34.2764 54.2814 34.2764ZM53.2932 40.2006H36.4948V36.2511H53.2932V40.2006Z" fill="#FFF"/>
<path d="M17.7201 16.5035C18.2658 16.5035 18.7082 16.0615 18.7082 15.5162C18.7082 14.9709 18.2658 14.5288 17.7201 14.5288C17.1743 14.5288 16.7319 14.9709 16.7319 15.5162C16.7319 16.0615 17.1743 16.5035 17.7201 16.5035Z" fill="#FFF"/>
</g>
<defs>
<clipPath id="clip0_313_163">
<rect width="59.2884" height="46.4064" fill="white" transform="translate(0.921875 0.705566)"/>
</clipPath>
</defs>
</svg>
