<svg width="48" height="48" viewBox="0 0 48 48" fill="none" xmlns="http://www.w3.org/2000/svg">
<g clip-path="url(#clip0_313_172)">
<path d="M40.226 7.49383C36.9801 4.25102 32.8457 2.04332 28.3453 1.14981C23.8449 0.256295 19.1807 0.717083 14.9422 2.47392C10.7036 4.23077 7.08107 7.20479 4.53244 11.02C1.98382 14.8353 0.623535 19.3205 0.623535 23.9087C0.623535 28.497 1.98382 32.9822 4.53244 36.7974C7.08107 40.6127 10.7036 43.5867 14.9422 45.3436C19.1807 47.1004 23.8449 47.5612 28.3453 46.6677C32.8457 45.7742 36.9801 43.5665 40.226 40.3237C44.573 35.9667 47.0143 30.0634 47.0143 23.9087C47.0143 17.7541 44.573 11.8508 40.226 7.49383ZM37.8825 37.9801C35.0995 40.7633 31.5536 42.6587 27.6934 43.4267C23.8331 44.1946 19.8318 43.8006 16.1955 42.2944C12.5592 40.7883 9.45117 38.2376 7.26448 34.9651C5.07779 31.6925 3.91064 27.845 3.91064 23.9091C3.91064 19.9732 5.07779 16.1257 7.26448 12.8531C9.45117 9.58053 12.5592 7.0299 16.1955 5.52374C19.8318 4.01759 23.8331 3.62356 27.6934 4.3915C31.5536 5.15943 35.0995 7.05483 37.8825 9.83801C41.609 13.5728 43.7018 18.6332 43.7018 23.9091C43.7018 29.185 41.609 34.2454 37.8825 37.9801ZM25.4685 13.9274V28.7967C25.4685 29.2362 25.2939 29.6578 24.9831 29.9686C24.6722 30.2794 24.2507 30.454 23.8111 30.454C23.3716 30.454 22.95 30.2794 22.6392 29.9686C22.3284 29.6578 22.1537 29.2362 22.1537 28.7967V13.9274C22.1537 13.4878 22.3284 13.0663 22.6392 12.7555C22.95 12.4447 23.3716 12.27 23.8111 12.27C24.2507 12.27 24.6722 12.4447 24.9831 12.7555C25.2939 13.0663 25.4685 13.4878 25.4685 13.9274ZM25.4685 33.9633C25.4685 34.2911 25.3713 34.6116 25.1892 34.8841C25.0071 35.1567 24.7482 35.3691 24.4454 35.4946C24.1425 35.62 23.8093 35.6528 23.4878 35.5889C23.1663 35.5249 22.871 35.3671 22.6392 35.1353C22.4074 34.9035 22.2495 34.6082 22.1856 34.2867C22.1216 33.9652 22.1545 33.6319 22.2799 33.3291C22.4054 33.0263 22.6178 32.7674 22.8903 32.5853C23.1629 32.4032 23.4833 32.306 23.8111 32.306C24.2507 32.306 24.6722 32.4806 24.9831 32.7914C25.2939 33.1022 25.4685 33.5238 25.4685 33.9633Z" fill="#FFF"/>
</g>
<defs>
<clipPath id="clip0_313_172">
<rect width="46.4064" height="46.4064" fill="white" transform="translate(0.60791 0.705566)"/>
</clipPath>
</defs>
</svg>
